<svg width="142" height="81" viewBox="0 0 142 81" fill="none" xmlns="http://www.w3.org/2000/svg">
<path d="M39.1513 14.7485C57.1916 0.642473 123.927 -1.22914 135.481 8.58835C147.035 18.4058 134.112 64.2461 134.112 64.2461L8.06747 61.1457C-12.7892 60.6327 21.111 28.8545 39.1513 14.7485Z" stroke="#2C2828" stroke-width="3"/>
<circle cx="42.8931" cy="61.5023" r="16.5" transform="rotate(1.40904 42.8931 61.5023)" fill="#2C2828"/>
<circle cx="114.871" cy="63.2726" r="16.5" transform="rotate(1.40904 114.871 63.2726)" fill="#2C2828"/>
<rect x="100.519" y="16.4055" width="9" height="25" rx="1" transform="rotate(1.40904 100.519 16.4055)" fill="#FF0F0F"/>
<rect x="92.0792" y="34.2034" width="9" height="25" rx="1" transform="rotate(-88.591 92.0792 34.2034)" fill="#FF0F0F"/>
<path d="M52.4313 39.7301L53.1813 9.23937L31.9172 19.7197L12.9432 38.7588L52.4313 39.7301Z" fill="#2C2828" stroke="#2C2828"/>
<line x1="79.3457" y1="2.87262" x2="78.87" y2="62.8791" stroke="#2C2828"/>
</svg>
