<svg width="844" height="540" viewBox="0 0 844 540" fill="none" xmlns="http://www.w3.org/2000/svg">
<path d="M48.2013 79.492C43.9373 79.492 39.8373 78.8087 35.9013 77.442C32.02 76.0207 29.0133 74.2167 26.8813 72.03L29.2593 67.356C31.282 69.324 33.988 70.9913 37.3773 72.358C40.8213 73.67 44.4293 74.326 48.2013 74.326C51.8093 74.326 54.734 73.8887 56.9753 73.014C59.2713 72.0847 60.9387 70.8547 61.9773 69.324C63.0707 67.7933 63.6173 66.0987 63.6173 64.24C63.6173 61.9987 62.9613 60.1947 61.6493 58.828C60.392 57.4613 58.7247 56.3953 56.6473 55.63C54.57 54.81 52.274 54.0993 49.7593 53.498C47.2447 52.8967 44.73 52.268 42.2153 51.612C39.7007 50.9013 37.3773 49.972 35.2453 48.824C33.168 47.676 31.4733 46.1727 30.1613 44.314C28.904 42.4007 28.2753 39.9133 28.2753 36.852C28.2753 34.0093 29.0133 31.4127 30.4893 29.062C32.02 26.6567 34.3433 24.7433 37.4593 23.322C40.5753 21.846 44.566 21.108 49.4313 21.108C52.6567 21.108 55.8547 21.5727 59.0253 22.502C62.196 23.3767 64.9293 24.6067 67.2253 26.192L65.1753 31.03C62.7153 29.39 60.0913 28.1873 57.3033 27.422C54.57 26.6567 51.9187 26.274 49.3493 26.274C45.9053 26.274 43.0627 26.7387 40.8213 27.668C38.58 28.5973 36.9127 29.8547 35.8193 31.44C34.7807 32.9707 34.2613 34.72 34.2613 36.688C34.2613 38.9293 34.89 40.7333 36.1473 42.1C37.4593 43.4667 39.154 44.5327 41.2313 45.298C43.3633 46.0633 45.6867 46.7467 48.2013 47.348C50.716 47.9493 53.2033 48.6053 55.6633 49.316C58.178 50.0267 60.474 50.956 62.5513 52.104C64.6833 53.1973 66.378 54.6733 67.6353 56.532C68.9473 58.3907 69.6033 60.8233 69.6033 63.83C69.6033 66.618 68.838 69.2147 67.3073 71.62C65.7767 73.9707 63.426 75.884 60.2553 77.36C57.1393 78.7813 53.1213 79.492 48.2013 79.492ZM108.573 79V69.488L108.327 67.93V52.022C108.327 48.3593 107.288 45.544 105.211 43.576C103.188 41.608 100.154 40.624 96.1086 40.624C93.3206 40.624 90.6692 41.0887 88.1546 42.018C85.6399 42.9473 83.5079 44.1773 81.7586 45.708L79.1346 41.362C81.3212 39.5033 83.9452 38.082 87.0066 37.098C90.0679 36.0593 93.2932 35.54 96.6826 35.54C102.259 35.54 106.55 36.934 109.557 39.722C112.618 42.4553 114.149 46.6373 114.149 52.268V79H108.573ZM93.7306 79.41C90.5052 79.41 87.6899 78.8907 85.2846 77.852C82.9339 76.7587 81.1299 75.2827 79.8726 73.424C78.6152 71.5107 77.9866 69.324 77.9866 66.864C77.9866 64.6227 78.5059 62.6 79.5446 60.796C80.6379 58.9373 82.3872 57.4613 84.7926 56.368C87.2526 55.22 90.5326 54.646 94.6326 54.646H109.475V58.992H94.7966C90.6419 58.992 87.7446 59.73 86.1046 61.206C84.5192 62.682 83.7266 64.5133 83.7266 66.7C83.7266 69.16 84.6832 71.128 86.5966 72.604C88.5099 74.08 91.1886 74.818 94.6326 74.818C97.9126 74.818 100.728 74.08 103.079 72.604C105.484 71.0733 107.233 68.8867 108.327 66.044L109.639 70.062C108.545 72.9047 106.632 75.1733 103.899 76.868C101.22 78.5627 97.8306 79.41 93.7306 79.41ZM130.946 79V30.538C130.946 26.7113 132.066 23.6227 134.308 21.272C136.549 18.9213 139.774 17.746 143.984 17.746C145.624 17.746 147.209 17.9647 148.74 18.402C150.27 18.8393 151.555 19.5227 152.594 20.452L150.626 24.798C149.806 24.0873 148.849 23.568 147.756 23.24C146.662 22.8573 145.487 22.666 144.23 22.666C141.77 22.666 139.884 23.3493 138.572 24.716C137.26 26.0827 136.604 28.1053 136.604 30.784V37.344L136.768 40.05V79H130.946ZM123.238 40.788V35.95H149.888V40.788H123.238ZM175.314 79.41C170.831 79.41 166.895 78.4807 163.506 76.622C160.117 74.7087 157.465 72.112 155.552 68.832C153.639 65.4973 152.682 61.698 152.682 57.434C152.682 53.17 153.584 49.398 155.388 46.118C157.247 42.838 159.761 40.2687 162.932 38.41C166.157 36.4967 169.765 35.54 173.756 35.54C177.801 35.54 181.382 36.4693 184.498 38.328C187.669 40.132 190.156 42.7013 191.96 46.036C193.764 49.316 194.666 53.1153 194.666 57.434C194.666 57.7073 194.639 58.008 194.584 58.336C194.584 58.6093 194.584 58.91 194.584 59.238H157.11V54.892H191.468L189.172 56.614C189.172 53.498 188.489 50.7373 187.122 48.332C185.81 45.872 184.006 43.9587 181.71 42.592C179.414 41.2253 176.763 40.542 173.756 40.542C170.804 40.542 168.153 41.2253 165.802 42.592C163.451 43.9587 161.62 45.872 160.308 48.332C158.996 50.792 158.34 53.6073 158.34 56.778V57.68C158.34 60.96 159.051 63.8573 160.472 66.372C161.948 68.832 163.971 70.7727 166.54 72.194C169.164 73.5607 172.143 74.244 175.478 74.244C178.102 74.244 180.535 73.7793 182.776 72.85C185.072 71.9207 187.04 70.4993 188.68 68.586L191.96 72.358C190.047 74.654 187.641 76.4033 184.744 77.606C181.901 78.8087 178.758 79.41 175.314 79.41ZM206.516 79V35.95H212.092V47.676L211.518 45.626C212.721 42.346 214.744 39.8587 217.586 38.164C220.429 36.4147 223.955 35.54 228.164 35.54V41.198C227.946 41.198 227.727 41.198 227.508 41.198C227.29 41.1433 227.071 41.116 226.852 41.116C222.315 41.116 218.762 42.51 216.192 45.298C213.623 48.0313 212.338 51.94 212.338 57.024V79H206.516ZM287.211 79.492C282.893 79.492 278.875 78.7813 275.157 77.36C271.495 75.884 268.297 73.834 265.563 71.21C262.885 68.5313 260.78 65.4427 259.249 61.944C257.773 58.3907 257.035 54.5093 257.035 50.3C257.035 46.0907 257.773 42.2367 259.249 38.738C260.78 35.1847 262.885 32.096 265.563 29.472C268.297 26.7933 271.495 24.7433 275.157 23.322C278.82 21.846 282.838 21.108 287.211 21.108C291.53 21.108 295.521 21.846 299.183 23.322C302.846 24.7433 306.017 26.766 308.695 29.39C311.429 32.014 313.533 35.1027 315.009 38.656C316.54 42.2093 317.305 46.0907 317.305 50.3C317.305 54.5093 316.54 58.3907 315.009 61.944C313.533 65.4973 311.429 68.586 308.695 71.21C306.017 73.834 302.846 75.884 299.183 77.36C295.521 78.7813 291.53 79.492 287.211 79.492ZM287.211 74.08C290.655 74.08 293.826 73.506 296.723 72.358C299.675 71.1553 302.217 69.488 304.349 67.356C306.536 65.1693 308.231 62.6547 309.433 59.812C310.636 56.9147 311.237 53.744 311.237 50.3C311.237 46.856 310.636 43.7127 309.433 40.87C308.231 37.9727 306.536 35.458 304.349 33.326C302.217 31.1393 299.675 29.472 296.723 28.324C293.826 27.1213 290.655 26.52 287.211 26.52C283.767 26.52 280.569 27.1213 277.617 28.324C274.665 29.472 272.096 31.1393 269.909 33.326C267.777 35.458 266.083 37.9727 264.825 40.87C263.623 43.7127 263.021 46.856 263.021 50.3C263.021 53.6893 263.623 56.8327 264.825 59.73C266.083 62.6273 267.777 65.1693 269.909 67.356C272.096 69.488 274.665 71.1553 277.617 72.358C280.569 73.506 283.767 74.08 287.211 74.08ZM351.653 35.54C355.151 35.54 358.213 36.2233 360.837 37.59C363.515 38.902 365.593 40.9247 367.069 43.658C368.599 46.3913 369.365 49.8353 369.365 53.99V79H363.543V54.564C363.543 50.0267 362.395 46.61 360.099 44.314C357.857 41.9633 354.687 40.788 350.587 40.788C347.525 40.788 344.847 41.4167 342.551 42.674C340.309 43.8767 338.56 45.6533 337.303 48.004C336.1 50.3 335.499 53.088 335.499 56.368V79H329.677V35.95H335.253V47.758L334.351 45.544C335.717 42.428 337.904 39.9953 340.911 38.246C343.917 36.442 347.498 35.54 351.653 35.54ZM118 179V126.848H97.828V121.6H144.24V126.848H124.068V179H118ZM227.957 135.54C231.456 135.54 234.49 136.223 237.059 137.59C239.683 138.902 241.706 140.925 243.127 143.658C244.603 146.391 245.341 149.835 245.341 153.99V179H239.519V154.564C239.519 150.027 238.426 146.61 236.239 144.314C234.107 141.963 231.073 140.788 227.137 140.788C224.185 140.788 221.616 141.417 219.429 142.674C217.297 143.877 215.63 145.653 214.427 148.004C213.279 150.3 212.705 153.088 212.705 156.368V179H206.883V154.564C206.883 150.027 205.79 146.61 203.603 144.314C201.416 141.963 198.355 140.788 194.419 140.788C191.522 140.788 188.98 141.417 186.793 142.674C184.606 143.877 182.912 145.653 181.709 148.004C180.561 150.3 179.987 153.088 179.987 156.368V179H174.165V135.95H179.741V147.594L178.839 145.544C180.151 142.428 182.256 139.995 185.153 138.246C188.105 136.442 191.576 135.54 195.567 135.54C199.776 135.54 203.357 136.606 206.309 138.738C209.261 140.815 211.174 143.959 212.049 148.168L209.753 147.266C211.01 143.767 213.224 140.952 216.395 138.82C219.62 136.633 223.474 135.54 227.957 135.54ZM279.416 179.41C274.933 179.41 270.997 178.481 267.608 176.622C264.218 174.709 261.567 172.112 259.654 168.832C257.74 165.497 256.784 161.698 256.784 157.434C256.784 153.17 257.686 149.398 259.49 146.118C261.348 142.838 263.863 140.269 267.034 138.41C270.259 136.497 273.867 135.54 277.858 135.54C281.903 135.54 285.484 136.469 288.6 138.328C291.77 140.132 294.258 142.701 296.062 146.036C297.866 149.316 298.768 153.115 298.768 157.434C298.768 157.707 298.74 158.008 298.686 158.336C298.686 158.609 298.686 158.91 298.686 159.238H261.212V154.892H295.57L293.274 156.614C293.274 153.498 292.59 150.737 291.224 148.332C289.912 145.872 288.108 143.959 285.812 142.592C283.516 141.225 280.864 140.542 277.858 140.542C274.906 140.542 272.254 141.225 269.904 142.592C267.553 143.959 265.722 145.872 264.41 148.332C263.098 150.792 262.442 153.607 262.442 156.778V157.68C262.442 160.96 263.152 163.857 264.574 166.372C266.05 168.832 268.072 170.773 270.642 172.194C273.266 173.561 276.245 174.244 279.58 174.244C282.204 174.244 284.636 173.779 286.878 172.85C289.174 171.921 291.142 170.499 292.782 168.586L296.062 172.358C294.148 174.654 291.743 176.403 288.846 177.606C286.003 178.809 282.86 179.41 279.416 179.41Z" fill="white"/>
<rect x="451.895" y="457.687" width="35" height="47" rx="5" transform="rotate(49.7937 451.895 457.687)" fill="white"/>
<rect x="465.902" y="454" width="21.9784" height="33.8288" rx="5" transform="rotate(49.7937 465.902 454)" fill="white"/>
<path d="M432.5 499C432.5 499 338.449 510.422 280 499C227.895 488.818 169.014 482.225 153 450.5C136.986 418.775 129.575 386.225 153 359.5C173.29 336.351 198.926 336.925 229.5 340.5C250.428 342.947 270.126 340.885 280 359.5C291.116 380.457 270.313 395.649 259 416.5C237.533 456.066 222.478 489.398 178.5 499C138.68 507.694 103.491 500.079 78.9999 467.5C53.656 433.787 66.6607 399.831 78.9999 359.5C93.1673 313.193 131.193 304.264 145.5 258C158.192 216.96 153 148 153 148" stroke="white" stroke-width="5"/>
<ellipse cx="152" cy="132.5" rx="4" ry="4.5" fill="white"/>
<rect x="402" y="389.971" width="413.015" height="210.818" rx="20" transform="rotate(-44.7896 402 389.971)" fill="#030305"/>
<g filter="url(#filter0_d_123_108)">
<ellipse cx="497.112" cy="444.082" rx="15.7542" ry="16.6435" transform="rotate(-44.7896 497.112 444.082)" fill="#040406"/>
</g>
<g filter="url(#filter1_d_123_108)">
<rect x="727.504" y="164.263" width="6.81262" height="71.695" rx="3.40631" transform="rotate(-44.7896 727.504 164.263)" fill="#030305"/>
<rect x="728.211" y="164.266" width="5.81262" height="70.695" rx="2.90631" transform="rotate(-44.7896 728.211 164.266)" stroke="black"/>
</g>
<rect x="461.765" y="357.102" width="304.865" height="172.41" rx="5" transform="rotate(-44.7896 461.765 357.102)" fill="#282828"/>
<path d="M528.193 421.261L539.777 409.623L527.042 373.84L581.904 409.954L539.522 323.981L587.85 361.327L579.346 326.033L628.424 355.517L622.497 318.818L738.915 201.86" stroke="#F11313" stroke-width="5"/>
<defs>
<filter id="filter0_d_123_108" x="480.91" y="427.874" width="40.4034" height="40.4165" filterUnits="userSpaceOnUse" color-interpolation-filters="sRGB">
<feFlood flood-opacity="0" result="BackgroundImageFix"/>
<feColorMatrix in="SourceAlpha" type="matrix" values="0 0 0 0 0 0 0 0 0 0 0 0 0 0 0 0 0 0 127 0" result="hardAlpha"/>
<feOffset dx="4" dy="4"/>
<feGaussianBlur stdDeviation="2"/>
<feComposite in2="hardAlpha" operator="out"/>
<feColorMatrix type="matrix" values="0 0 0 0 1 0 0 0 0 1 0 0 0 0 1 0 0 0 0.25 0"/>
<feBlend mode="normal" in2="BackgroundImageFix" result="effect1_dropShadow_123_108"/>
<feBlend mode="normal" in="SourceGraphic" in2="effect1_dropShadow_123_108" result="shape"/>
</filter>
<filter id="filter1_d_123_108" x="728.915" y="160.874" width="60.5227" height="60.8596" filterUnits="userSpaceOnUse" color-interpolation-filters="sRGB">
<feFlood flood-opacity="0" result="BackgroundImageFix"/>
<feColorMatrix in="SourceAlpha" type="matrix" values="0 0 0 0 0 0 0 0 0 0 0 0 0 0 0 0 0 0 127 0" result="hardAlpha"/>
<feOffset dx="4" dy="4"/>
<feGaussianBlur stdDeviation="2"/>
<feComposite in2="hardAlpha" operator="out"/>
<feColorMatrix type="matrix" values="0 0 0 0 1 0 0 0 0 1 0 0 0 0 1 0 0 0 0.25 0"/>
<feBlend mode="normal" in2="BackgroundImageFix" result="effect1_dropShadow_123_108"/>
<feBlend mode="normal" in="SourceGraphic" in2="effect1_dropShadow_123_108" result="shape"/>
</filter>
</defs>
</svg>
