<svg width="20" height="20" viewBox="0 0 20 20" fill="none" xmlns="http://www.w3.org/2000/svg">
<path d="M18.3333 0H1.66667C0.746528 0 0 0.959821 0 2.14286V17.8571C0 19.0402 0.746528 20 1.66667 20H18.3333C19.2535 20 20 19.0402 20 17.8571V2.14286C20 0.959821 19.2535 0 18.3333 0ZM6.11111 4.28571C7.33681 4.28571 8.33333 5.56696 8.33333 7.14286C8.33333 8.71875 7.33681 10 6.11111 10C4.88542 10 3.88889 8.71875 3.88889 7.14286C3.88889 5.56696 4.88542 4.28571 6.11111 4.28571ZM10 14.8571C10 15.3304 9.65278 15.7143 9.22222 15.7143H3C2.56944 15.7143 2.22222 15.3304 2.22222 14.8571V14C2.22222 12.5804 3.26736 11.4286 4.55556 11.4286H4.72917C5.15625 11.6562 5.62153 11.7857 6.11111 11.7857C6.60069 11.7857 7.06944 11.6562 7.49306 11.4286H7.66667C8.95486 11.4286 10 12.5804 10 14V14.8571ZM17.7778 12.5C17.7778 12.6964 17.6528 12.8571 17.5 12.8571H12.5C12.3472 12.8571 12.2222 12.6964 12.2222 12.5V11.7857C12.2222 11.5893 12.3472 11.4286 12.5 11.4286H17.5C17.6528 11.4286 17.7778 11.5893 17.7778 11.7857V12.5ZM17.7778 9.64286C17.7778 9.83929 17.6528 10 17.5 10H12.5C12.3472 10 12.2222 9.83929 12.2222 9.64286V8.92857C12.2222 8.73214 12.3472 8.57143 12.5 8.57143H17.5C17.6528 8.57143 17.7778 8.73214 17.7778 8.92857V9.64286ZM17.7778 6.78571C17.7778 6.98214 17.6528 7.14286 17.5 7.14286H12.5C12.3472 7.14286 12.2222 6.98214 12.2222 6.78571V6.07143C12.2222 5.875 12.3472 5.71429 12.5 5.71429H17.5C17.6528 5.71429 17.7778 5.875 17.7778 6.07143V6.78571Z" fill="white"/>
</svg>
