<svg width="435" height="526" viewBox="0 0 435 526" fill="none" xmlns="http://www.w3.org/2000/svg">
<path d="M332.142 283.698L336.2 280.825C336.2 280.825 364.093 275.11 349.234 272.658C334.375 270.205 321.521 279.055 321.521 279.055L314.536 291.693L306.715 293.553L307.484 304.503L321.033 308.696C321.033 308.696 368.739 324.716 364.728 317.351C360.718 309.986 344.107 307.211 344.107 307.211C344.107 307.211 378.932 312.214 367.061 305.381C359.94 301.296 351.846 299.854 343.947 301.263C343.947 301.263 383.685 299.283 369.013 294.956C354.341 290.628 340.678 293.996 340.678 293.996C340.678 293.996 378.531 288.986 363.866 284.658C349.201 280.33 332.142 283.698 332.142 283.698Z" fill="#97C3EB"/>
<path d="M341.681 316.204C331.166 313.264 320.846 309.806 320.765 309.776L306.535 305.381L305.646 292.631L313.914 290.658L320.792 278.208L320.999 278.065C321.534 277.698 334.368 269.065 349.381 271.518C352.055 271.96 354.568 272.628 354.595 274.518C354.595 275.77 353.926 277.315 345.156 279.768C341.333 280.856 337.463 281.681 336.567 281.876C342.683 281.163 353.906 280.526 364.14 283.548C366.245 284.171 368.378 285.048 368.264 286.901C368.177 288.221 367.288 289.781 358.766 291.851C362.32 292.172 365.842 292.84 369.293 293.846C371.793 294.596 373.431 295.398 373.304 296.951C373.197 298.083 373.057 299.613 360.022 301.083C362.633 301.87 365.162 302.964 367.569 304.346C369.267 305.328 370.951 306.544 370.517 308.096C370.142 309.446 368.752 310.691 356.58 309.686C360.356 311.351 363.932 313.646 365.63 316.714C365.882 317.07 366.022 317.508 366.029 317.962C366.036 318.416 365.91 318.861 365.67 319.226C365.46 319.536 365.191 319.788 364.882 319.965C364.573 320.142 364.232 320.238 363.886 320.246C361.513 320.696 355.965 320.186 341.681 316.204ZM363.872 317.944C360.156 311.111 344.12 308.351 343.96 308.329L344.234 306.079C354.173 307.511 365.624 308.366 368.237 307.474C367.725 307.049 367.179 306.677 366.606 306.364C361.86 303.669 356.654 302.147 351.339 301.901C347.182 302.216 344.04 302.373 343.987 302.381L343.733 300.131C346.351 299.596 349.018 299.423 351.674 299.613C360.497 298.923 368.518 297.866 370.811 296.778C370.143 296.466 369.455 296.216 368.752 296.028C361.683 294.054 354.37 293.418 347.115 294.146C343.499 294.738 340.832 295.091 340.792 295.098L340.457 292.848C342.759 292.334 345.088 291.986 347.429 291.806C356.433 290.306 364.761 288.281 366.145 286.788C365.366 286.268 364.514 285.901 363.625 285.701C349.347 281.486 332.49 284.718 332.323 284.756L327.309 285.738L335.838 279.738L336.032 279.7C342.897 278.29 350.698 276.04 352.375 274.623C351.322 274.173 350.221 273.88 349.1 273.753C335.778 271.555 323.914 278.793 322.256 279.865L315.177 292.668L307.825 294.431L308.493 303.611L321.387 307.594C340.29 314.014 361.011 319.489 363.899 317.981L363.872 317.944Z" fill="#384D63"/>
<path d="M198.744 281.013C198.744 281.013 240.234 321.956 315.9 308.899L313.086 287.831C313.086 287.831 242.974 299.171 211.758 260.59" fill="white"/>
<path d="M317.036 309.829L316.046 310.001C276.749 316.751 246.79 308.786 228.582 300.888C208.817 292.308 198.503 282.266 198.082 281.838L199.419 280.151C199.519 280.248 209.947 290.396 229.418 298.826C247.212 306.514 276.429 314.336 314.756 307.939L312.216 289.068C299.535 290.681 286.744 290.92 274.022 289.781C254.29 287.951 227.332 281.531 210.989 261.333L212.473 259.833C242.98 297.536 312.223 286.833 312.918 286.713L313.901 286.556L317.036 309.829Z" fill="#384D63"/>
<path d="M137.884 281.013L134.174 515.258H155.804L159.567 515.798L165.69 517.298C165.69 517.298 220.04 516.608 222.507 490.965C222.507 490.965 161.974 502.05 160.744 480.569C159.514 459.089 159.507 294.836 159.507 294.836L137.884 281.013Z" fill="#384D63"/>
<path d="M159.754 311.546C159.039 314.756 203.356 398.968 203.356 398.968C203.356 398.968 87.5641 420.621 86.1336 424.633C84.7032 428.646 86.8488 444.681 86.8488 444.681L86.4879 449.826C86.4879 449.826 71.114 494.407 103.286 513.653C103.286 513.653 90.4249 459.914 131.166 447.891L239.805 415.806L199.065 319.571L159.754 308.321V311.546Z" fill="#384D63"/>
<path d="M109.348 44.7284L236.076 43.8809L239.097 188.611L226.824 232.997L113.118 232.63L109.348 44.7284Z" fill="#97C3EB"/>
<path d="M227.56 234.122L112.142 233.762L108.346 43.6034L237.078 42.7484V43.8509L240.1 188.761L240.053 188.941L227.56 234.122ZM114.101 231.512L226.083 231.88L238.114 188.461L235.127 45.0209L110.351 45.8459L114.101 231.512Z" fill="#384D63"/>
<path d="M213.596 174.848L211.551 173.243C211.403 173.123 196.471 161.626 179.098 168.931L178.396 166.823C193.149 160.613 205.902 166.996 210.702 170.018L194.171 76.049L196.137 75.614L213.596 174.848Z" fill="#384D63"/>
<path d="M177.982 121.845C179.467 121.845 180.67 119.666 180.67 116.977C180.67 114.289 179.467 112.11 177.982 112.11C176.498 112.11 175.295 114.289 175.295 116.977C175.295 119.666 176.498 121.845 177.982 121.845Z" fill="#384D63"/>
<path d="M228.663 123.172C230.147 123.172 231.35 120.993 231.35 118.305C231.35 115.617 230.147 113.437 228.663 113.437C227.179 113.437 225.976 115.617 225.976 118.305C225.976 120.993 227.179 123.172 228.663 123.172Z" fill="#384D63"/>
<path d="M114.602 108.51C114.602 108.51 93.4797 105.127 97.2229 125.722C100.966 146.318 117.089 144.908 117.089 144.908" fill="#97C3EB"/>
<path d="M116.594 146.01C113.539 146.01 99.7564 144.93 96.2672 125.91C95.1709 119.91 95.9931 115.222 98.7136 111.982C103.967 105.712 114.308 107.287 114.756 107.362L114.475 109.612C114.375 109.612 104.723 108.112 100.184 113.55C97.9382 116.227 97.2899 120.24 98.2457 125.483C101.802 144.878 116.434 143.82 117.049 143.768L117.209 146.018C117.209 146.018 116.962 146.01 116.594 146.01Z" fill="#384D63"/>
<path d="M146.813 177.331C146.813 177.331 180.141 208.329 223.255 185.889C223.255 185.889 213.449 184.389 210.682 179.589" fill="#97C3EB"/>
<path d="M191.371 195.129C183.626 195.12 175.929 193.759 168.558 191.094C154.815 186.144 146.499 178.516 146.172 178.194L147.455 176.461C147.535 176.536 155.851 184.171 169.253 188.979C185.88 194.982 203.882 194.031 219.933 186.301C216.664 185.409 211.785 183.571 209.84 180.196L211.524 178.974C213.583 182.551 220.789 184.374 223.389 184.771L226.778 185.296L223.676 186.909C213.575 192.274 202.546 195.08 191.371 195.129Z" fill="#384D63"/>
<path d="M103.172 119.385C103.172 119.385 111.507 110.025 118.653 126.885C118.653 126.885 104.616 122.872 111.033 136.508" fill="#97C3EB"/>
<path d="M110.143 137.01C108.105 132.683 107.804 129.45 109.248 127.388C110.952 124.958 114.522 125.003 116.834 125.34C114.675 120.967 112.276 118.5 109.682 117.997C106.42 117.367 103.9 120.142 103.88 120.172L102.457 118.575C102.59 118.432 105.752 114.96 110.023 115.785C113.666 116.49 116.875 120.052 119.562 126.375L120.477 128.535L118.412 127.95C116.888 127.523 112.242 126.75 110.819 128.783C109.923 130.058 110.304 132.533 111.915 135.96L110.143 137.01Z" fill="#384D63"/>
<path d="M187.761 135.476C187.918 131.073 179.247 127.109 168.394 126.622C157.54 126.134 148.615 129.309 148.458 133.712C148.301 138.115 156.972 142.08 167.825 142.567C178.679 143.054 187.604 139.879 187.761 135.476Z" fill="#DFA0A6"/>
<path d="M229.616 141.584C229.749 137.84 223.827 134.534 216.389 134.2C208.95 133.866 202.812 136.631 202.678 140.375C202.545 144.12 208.467 147.426 215.905 147.76C223.344 148.094 229.482 145.329 229.616 141.584Z" fill="#DFA0A6"/>
<path d="M187.608 106.065L159.414 100.44C159.414 100.44 183.069 115.5 187.608 106.065Z" fill="#384D63"/>
<path d="M217.801 92.9844L234.318 106.53C234.318 106.53 216.531 103.32 217.801 92.9844Z" fill="#384D63"/>
<path d="M183.684 525.878C257.107 525.878 316.628 523.245 316.628 519.998C316.628 516.75 257.107 514.118 183.684 514.118C110.261 514.118 50.7402 516.75 50.7402 519.998C50.7402 523.245 110.261 525.878 183.684 525.878Z" fill="#384D63"/>
<path d="M43.8356 518.993L35.2596 430.266L36.2155 515.768C36.2155 515.768 11.4234 418.476 11.4234 423.823C11.4234 429.171 23.8228 514.71 23.8228 514.71L0 465.517L12.386 517.913L43.8356 518.993Z" fill="#384D63"/>
<path d="M308.633 510.66L300.057 421.903L301.013 507.45C301.013 507.45 276.235 410.143 276.235 415.491C276.235 420.838 288.621 506.385 288.621 506.385L264.798 457.192L277.184 509.588L308.633 510.66Z" fill="#384D63"/>
<path d="M69.951 382.055L70.8467 387.35C70.8467 387.35 65.3722 418.566 72.852 403.948C80.3317 389.33 77.6981 372.672 77.6981 372.672L69.7772 360.755L71.114 351.904L61.756 348.694L53.3205 361.302C53.3205 361.302 22.5727 405.253 30.1327 403.76C37.6926 402.268 46.0948 385.94 46.0948 385.94C46.0948 385.94 29.1969 420.478 39.2099 410.586C45.2043 404.642 49.3613 396.716 51.0812 387.95C51.0812 387.95 38.1672 430.161 47.1308 416.451C56.0944 402.74 58.3069 387.2 58.3069 387.2C58.3069 387.2 48.5947 428.556 57.5583 414.831C66.5219 401.105 69.951 382.055 69.951 382.055Z" fill="#97C3EB"/>
<path d="M39.4972 380.12C45.7804 370.212 52.4313 360.702 52.4848 360.62L61.3415 347.382L72.2168 351.132L70.8198 360.477L78.6337 372.23L78.6738 372.492C78.7808 373.19 81.274 389.743 73.7074 404.525C72.3705 407.173 70.8866 409.536 69.3292 408.876C68.2864 408.441 67.2638 407.136 68.4201 397.093C68.9215 392.705 69.65 388.363 69.8172 387.343C68.1661 393.988 64.59 405.936 58.3335 415.521C57.0502 417.486 55.5328 419.391 54.0422 418.596C52.9794 418.026 52.0369 416.518 53.4206 406.866C51.8498 410.458 50.0047 413.891 47.9061 417.126C46.382 419.466 45.1053 420.876 43.8955 420.126C42.9998 419.601 41.7832 418.888 45.3326 404.743C43.7274 407.183 41.8944 409.423 39.8649 411.426C38.4277 412.843 36.8101 414.156 35.6604 413.121C34.6712 412.236 34.1565 410.338 39.4437 397.993C36.6831 401.33 33.4279 404.248 30.2996 404.87C29.9117 405.008 29.4944 404.999 29.1116 404.844C28.7289 404.69 28.4018 404.399 28.1807 404.015C27.9999 403.681 27.8891 403.304 27.8567 402.915C27.8242 402.525 27.871 402.132 27.9936 401.765C28.5083 399.178 30.9681 393.568 39.4972 380.12ZM29.9253 402.62C36.9505 401.24 45.112 385.505 45.1922 385.37L46.9435 386.473C42.1175 396.335 37.2179 407.953 36.9973 411.028C37.5387 410.651 38.0468 410.216 38.5146 409.731C42.4903 405.766 45.659 400.888 47.8058 395.428C49.0691 390.965 50.0851 387.628 50.0985 387.583L52.0369 388.13C51.5216 391.057 50.6912 393.903 49.5638 396.605C46.89 406.078 44.8446 414.846 44.8848 417.606C45.389 417.022 45.8516 416.395 46.2684 415.731C50.4946 409.073 53.7025 401.671 55.7601 393.83C56.5889 389.84 57.2707 386.923 57.2841 386.878L59.2426 387.343C58.8353 389.937 58.2816 392.5 57.5849 395.015C55.5261 404.96 54.1559 414.403 54.9112 416.368C55.6307 415.742 56.2481 414.981 56.736 414.118C65.4256 400.76 68.9482 381.973 68.9816 381.785L70.0043 376.19L71.8826 387.305L71.8425 387.523C70.5056 395.203 69.5097 404.173 70.0645 406.445C70.8241 405.512 71.4713 404.47 71.9895 403.348C78.6738 390.238 77.0295 375.2 76.7554 373.077L68.7343 360.995L69.9776 352.647L62.1035 350.014L54.0823 362.015C41.8635 379.467 29.6847 399.14 29.8852 402.68L29.9253 402.62Z" fill="#384D63"/>
<path d="M119.769 243.055C119.769 243.055 70.6195 271.383 53.7417 355.159L72.2505 359.945C72.2505 359.945 88.5134 282.588 131.941 264.123" fill="white"/>
<path d="M52.5449 356.015L52.7655 354.919C61.5286 311.419 79.1283 283.053 92.3499 266.935C106.701 249.437 118.806 242.35 119.314 242.057L120.23 244.06C120.11 244.127 107.877 251.297 93.7535 268.54C80.8328 284.291 63.6743 311.959 54.9446 354.327L71.5149 358.61C74.8111 344.778 79.288 331.336 84.8835 318.469C93.6265 298.533 108.82 272.718 131.553 263.08L132.268 265.18C89.8299 283.226 73.3531 359.442 73.1927 360.207L72.9654 361.302L52.5449 356.015Z" fill="#384D63"/>
<path d="M112.557 234.017V341.854L228.863 344.524L226.958 233.852C226.958 233.852 110.939 232.195 112.557 234.017Z" fill="#384D63"/>
<path d="M229.906 345.672H228.863L111.554 342.979V234.512L111.374 234.302L111.621 233.552C111.968 232.615 112.102 232.27 130.691 232.112C140.216 232.03 153.418 232.045 170.008 232.157C198.216 232.337 226.704 232.742 226.985 232.75H227.961L229.906 345.672ZM113.559 340.752L227.861 343.377L225.989 234.962C183.51 234.362 120.845 233.867 113.559 234.835V340.752Z" fill="#384D63"/>
<path d="M144.3 234.122L187.187 300.686L224.592 233.852L144.3 234.122Z" fill="white"/>
<path d="M187.22 302.696L142.342 233.012L226.41 232.735L187.22 302.696ZM146.259 235.262L187.127 298.698L222.774 235.007L146.259 235.262Z" fill="#384D63"/>
<path d="M177.688 234.062L173.403 247.427L181.979 257.32L171.732 276.835L187.935 299.291L200.007 274.248L187.935 257.05L194.131 246.625L187.461 234.857L177.688 234.062Z" fill="#9F1E1F" stroke="#384D64" stroke-width="6" stroke-linecap="round" stroke-linejoin="round"/>
<path d="M109.555 122.827L117.182 124.252L119.401 136.013L127.342 136.733L130.203 113.205L143.859 105.36L142.275 69.3589L236.303 67.2214L237.894 0.567566L93.3525 11.6153L109.555 122.827Z" fill="#384D63"/>
<path d="M428.209 278.973H257.385C253.634 278.973 250.594 282.385 250.594 286.593C250.594 290.802 253.634 294.213 257.385 294.213H428.209C431.959 294.213 435 290.802 435 286.593C435 282.385 431.959 278.973 428.209 278.973Z" fill="#384D63"/>
<path d="M421.952 282.513L267.432 280.45C268.018 257.719 276.54 236.157 291.161 220.409C305.781 204.66 325.33 195.987 345.596 196.258C365.861 196.528 385.221 205.721 399.503 221.855C413.786 237.989 421.848 259.773 421.952 282.513Z" fill="#384D63"/>
<path d="M345.658 200.371C350.394 200.371 354.234 196.063 354.234 190.749C354.234 185.434 350.394 181.126 345.658 181.126C340.922 181.126 337.082 185.434 337.082 190.749C337.082 196.063 340.922 200.371 345.658 200.371Z" fill="#384D63"/>
</svg>
