<svg width="124" height="79" viewBox="0 0 124 79" fill="none" xmlns="http://www.w3.org/2000/svg">
<rect x="13.5212" width="38.31" height="79" rx="5" fill="white"/>
<path d="M108.169 13.5429C108.169 13.5429 96.1229 12.2033 86.7609 11.2856C76.6884 10.2982 70.7002 15.7486 60.8454 18.0565C45.9903 21.5355 50.7861 17.2131 46.0934 31.7524C43.7923 38.8816 46.0934 50.9381 46.0934 50.9381C46.0934 50.9381 46.8532 53.4722 60.8454 57.5562C70.6442 60.4162 76.607 65.5157 86.7609 64.481C96.4514 63.4935 108.169 64.481 108.169 64.481" stroke="white" stroke-width="5"/>
<path d="M106.007 22.4662C102.88 18.7652 102.88 13.7528 106.007 10.0519C109.702 5.67802 116.96 5.67802 120.655 10.0519C123.782 13.7528 123.782 18.7652 120.655 22.4662C116.96 26.84 109.702 26.84 106.007 22.4662Z" fill="white" stroke="white"/>
<path d="M106.007 72.1231C102.88 68.4222 102.88 63.4098 106.007 59.7089C109.702 55.335 116.96 55.335 120.655 59.7089C123.782 63.4098 123.782 68.4222 120.655 72.1231C116.96 76.497 109.702 76.497 106.007 72.1231Z" fill="white" stroke="white"/>
<rect x="4.50708" y="27.0857" width="15.7747" height="24.8286" fill="white"/>
<rect y="4.5144" width="9.01411" height="42.8857" rx="4.50705" fill="white"/>
</svg>
