<svg width="443" height="376" viewBox="0 0 443 376" fill="none" xmlns="http://www.w3.org/2000/svg">
<rect width="443" height="376" fill="#A7A7A7"/>
<rect x="25" y="19" width="392" height="337" fill="#353535"/>
<rect x="43" y="45" width="353" height="284" fill="#773013"/>
<circle cx="54" cy="71" r="5" fill="#0D0D0D"/>
<circle cx="87" cy="71" r="5" fill="#0D0D0D"/>
<circle cx="120" cy="71" r="5" fill="#0D0D0D"/>
<circle cx="153" cy="71" r="5" fill="#0D0D0D"/>
<circle cx="186" cy="71" r="5" fill="#0D0D0D"/>
<circle cx="219" cy="71" r="5" fill="#0D0D0D"/>
<circle cx="252" cy="71" r="5" fill="#0D0D0D"/>
<circle cx="285" cy="71" r="5" fill="#0D0D0D"/>
<circle cx="318" cy="71" r="5" fill="#0D0D0D"/>
<circle cx="351" cy="71" r="5" fill="#0D0D0D"/>
<circle cx="384" cy="71" r="5" fill="#0D0D0D"/>
<circle cx="54" cy="100" r="5" fill="#0D0D0D"/>
<circle cx="87" cy="100" r="5" fill="#0D0D0D"/>
<circle cx="120" cy="100" r="5" fill="#0D0D0D"/>
<circle cx="153" cy="100" r="5" fill="#0D0D0D"/>
<circle cx="186" cy="100" r="5" fill="#0D0D0D"/>
<circle cx="219" cy="100" r="5" fill="#0D0D0D"/>
<circle cx="252" cy="100" r="5" fill="#0D0D0D"/>
<circle cx="285" cy="100" r="5" fill="#0D0D0D"/>
<circle cx="318" cy="100" r="5" fill="#0D0D0D"/>
<circle cx="351" cy="100" r="5" fill="#0D0D0D"/>
<circle cx="384" cy="100" r="5" fill="#0D0D0D"/>
<circle cx="54" cy="100" r="5" fill="#0D0D0D"/>
<circle cx="87" cy="100" r="5" fill="#0D0D0D"/>
<circle cx="120" cy="100" r="5" fill="#0D0D0D"/>
<circle cx="153" cy="100" r="5" fill="#0D0D0D"/>
<circle cx="186" cy="100" r="5" fill="#0D0D0D"/>
<circle cx="219" cy="100" r="5" fill="#0D0D0D"/>
<circle cx="252" cy="100" r="5" fill="#0D0D0D"/>
<circle cx="285" cy="100" r="5" fill="#0D0D0D"/>
<circle cx="318" cy="100" r="5" fill="#0D0D0D"/>
<circle cx="351" cy="100" r="5" fill="#0D0D0D"/>
<circle cx="384" cy="100" r="5" fill="#0D0D0D"/>
<circle cx="54" cy="129" r="5" fill="#0D0D0D"/>
<circle cx="87" cy="129" r="5" fill="#0D0D0D"/>
<circle cx="120" cy="129" r="5" fill="#0D0D0D"/>
<circle cx="153" cy="129" r="5" fill="#0D0D0D"/>
<circle cx="186" cy="129" r="5" fill="#0D0D0D"/>
<circle cx="219" cy="129" r="5" fill="#0D0D0D"/>
<circle cx="252" cy="129" r="5" fill="#0D0D0D"/>
<circle cx="285" cy="129" r="5" fill="#0D0D0D"/>
<circle cx="318" cy="129" r="5" fill="#0D0D0D"/>
<circle cx="351" cy="129" r="5" fill="#0D0D0D"/>
<circle cx="384" cy="129" r="5" fill="#0D0D0D"/>
<circle cx="54" cy="158" r="5" fill="#0D0D0D"/>
<circle cx="87" cy="158" r="5" fill="#0D0D0D"/>
<circle cx="120" cy="158" r="5" fill="#0D0D0D"/>
<circle cx="153" cy="158" r="5" fill="#0D0D0D"/>
<circle cx="186" cy="158" r="5" fill="#0D0D0D"/>
<circle cx="219" cy="158" r="5" fill="#0D0D0D"/>
<circle cx="252" cy="158" r="5" fill="#0D0D0D"/>
<circle cx="285" cy="158" r="5" fill="#0D0D0D"/>
<circle cx="318" cy="158" r="5" fill="#0D0D0D"/>
<circle cx="351" cy="158" r="5" fill="#0D0D0D"/>
<circle cx="384" cy="158" r="5" fill="#0D0D0D"/>
<circle cx="54" cy="158" r="5" fill="#0D0D0D"/>
<circle cx="87" cy="158" r="5" fill="#0D0D0D"/>
<circle cx="120" cy="158" r="5" fill="#0D0D0D"/>
<circle cx="153" cy="158" r="5" fill="#0D0D0D"/>
<circle cx="186" cy="158" r="5" fill="#0D0D0D"/>
<circle cx="219" cy="158" r="5" fill="#0D0D0D"/>
<circle cx="252" cy="158" r="5" fill="#0D0D0D"/>
<circle cx="285" cy="158" r="5" fill="#0D0D0D"/>
<circle cx="318" cy="158" r="5" fill="#0D0D0D"/>
<circle cx="351" cy="158" r="5" fill="#0D0D0D"/>
<circle cx="384" cy="158" r="5" fill="#0D0D0D"/>
<circle cx="54" cy="187" r="5" fill="#0D0D0D"/>
<circle cx="87" cy="187" r="5" fill="#0D0D0D"/>
<circle cx="120" cy="187" r="5" fill="#0D0D0D"/>
<circle cx="153" cy="187" r="5" fill="#0D0D0D"/>
<circle cx="186" cy="187" r="5" fill="#0D0D0D"/>
<circle cx="219" cy="187" r="5" fill="#0D0D0D"/>
<circle cx="252" cy="187" r="5" fill="#0D0D0D"/>
<circle cx="285" cy="187" r="5" fill="#0D0D0D"/>
<circle cx="318" cy="187" r="5" fill="#0D0D0D"/>
<circle cx="351" cy="187" r="5" fill="#0D0D0D"/>
<circle cx="384" cy="187" r="5" fill="#0D0D0D"/>
<circle cx="54" cy="216" r="5" fill="#0D0D0D"/>
<circle cx="87" cy="216" r="5" fill="#0D0D0D"/>
<circle cx="120" cy="216" r="5" fill="#0D0D0D"/>
<circle cx="153" cy="216" r="5" fill="#0D0D0D"/>
<circle cx="186" cy="216" r="5" fill="#0D0D0D"/>
<circle cx="219" cy="216" r="5" fill="#0D0D0D"/>
<circle cx="252" cy="216" r="5" fill="#0D0D0D"/>
<circle cx="285" cy="216" r="5" fill="#0D0D0D"/>
<circle cx="318" cy="216" r="5" fill="#0D0D0D"/>
<circle cx="351" cy="216" r="5" fill="#0D0D0D"/>
<circle cx="384" cy="216" r="5" fill="#0D0D0D"/>
<circle cx="54" cy="216" r="5" fill="#0D0D0D"/>
<circle cx="87" cy="216" r="5" fill="#0D0D0D"/>
<circle cx="120" cy="216" r="5" fill="#0D0D0D"/>
<circle cx="153" cy="216" r="5" fill="#0D0D0D"/>
<circle cx="186" cy="216" r="5" fill="#0D0D0D"/>
<circle cx="219" cy="216" r="5" fill="#0D0D0D"/>
<circle cx="252" cy="216" r="5" fill="#0D0D0D"/>
<circle cx="285" cy="216" r="5" fill="#0D0D0D"/>
<circle cx="318" cy="216" r="5" fill="#0D0D0D"/>
<circle cx="351" cy="216" r="5" fill="#0D0D0D"/>
<circle cx="384" cy="216" r="5" fill="#0D0D0D"/>
<circle cx="54" cy="245" r="5" fill="#0D0D0D"/>
<circle cx="87" cy="245" r="5" fill="#0D0D0D"/>
<circle cx="120" cy="245" r="5" fill="#0D0D0D"/>
<circle cx="153" cy="245" r="5" fill="#0D0D0D"/>
<circle cx="186" cy="245" r="5" fill="#0D0D0D"/>
<circle cx="219" cy="245" r="5" fill="#0D0D0D"/>
<circle cx="252" cy="245" r="5" fill="#0D0D0D"/>
<circle cx="285" cy="245" r="5" fill="#0D0D0D"/>
<circle cx="318" cy="245" r="5" fill="#0D0D0D"/>
<circle cx="351" cy="245" r="5" fill="#0D0D0D"/>
<circle cx="384" cy="245" r="5" fill="#0D0D0D"/>
<circle cx="54" cy="274" r="5" fill="#0D0D0D"/>
<circle cx="87" cy="274" r="5" fill="#0D0D0D"/>
<circle cx="120" cy="274" r="5" fill="#0D0D0D"/>
<circle cx="153" cy="274" r="5" fill="#0D0D0D"/>
<circle cx="186" cy="274" r="5" fill="#0D0D0D"/>
<circle cx="219" cy="274" r="5" fill="#0D0D0D"/>
<circle cx="252" cy="274" r="5" fill="#0D0D0D"/>
<circle cx="285" cy="274" r="5" fill="#0D0D0D"/>
<circle cx="318" cy="274" r="5" fill="#0D0D0D"/>
<circle cx="351" cy="274" r="5" fill="#0D0D0D"/>
<circle cx="384" cy="274" r="5" fill="#0D0D0D"/>
<circle cx="54" cy="274" r="5" fill="#0D0D0D"/>
<circle cx="87" cy="274" r="5" fill="#0D0D0D"/>
<circle cx="120" cy="274" r="5" fill="#0D0D0D"/>
<circle cx="153" cy="274" r="5" fill="#0D0D0D"/>
<circle cx="186" cy="274" r="5" fill="#0D0D0D"/>
<circle cx="219" cy="274" r="5" fill="#0D0D0D"/>
<circle cx="252" cy="274" r="5" fill="#0D0D0D"/>
<circle cx="285" cy="274" r="5" fill="#0D0D0D"/>
<circle cx="318" cy="274" r="5" fill="#0D0D0D"/>
<circle cx="351" cy="274" r="5" fill="#0D0D0D"/>
<circle cx="384" cy="274" r="5" fill="#0D0D0D"/>
<circle cx="54" cy="303" r="5" fill="#0D0D0D"/>
<circle cx="87" cy="303" r="5" fill="#0D0D0D"/>
<circle cx="120" cy="303" r="5" fill="#0D0D0D"/>
<circle cx="153" cy="303" r="5" fill="#0D0D0D"/>
<circle cx="186" cy="303" r="5" fill="#0D0D0D"/>
<circle cx="219" cy="303" r="5" fill="#0D0D0D"/>
<circle cx="252" cy="303" r="5" fill="#0D0D0D"/>
<circle cx="285" cy="303" r="5" fill="#0D0D0D"/>
<circle cx="318" cy="303" r="5" fill="#0D0D0D"/>
<circle cx="351" cy="303" r="5" fill="#0D0D0D"/>
<circle cx="384" cy="303" r="5" fill="#0D0D0D"/>
<line x1="59" y1="54.5" x2="75" y2="54.5" stroke="white"/>
<line x1="96" y1="54.5" x2="112" y2="54.5" stroke="white"/>
<line x1="133" y1="54.5" x2="149" y2="54.5" stroke="white"/>
<line x1="158" y1="54.5" x2="174" y2="54.5" stroke="white"/>
<line x1="195" y1="54.5" x2="211" y2="54.5" stroke="white"/>
<line x1="232" y1="54.5" x2="248" y2="54.5" stroke="white"/>
<line x1="257" y1="54.5" x2="273" y2="54.5" stroke="white"/>
<line x1="294" y1="54.5" x2="310" y2="54.5" stroke="white"/>
<line x1="331" y1="54.5" x2="347" y2="54.5" stroke="white"/>
<line x1="356" y1="54.5" x2="372" y2="54.5" stroke="white"/>
<line x1="59" y1="317.5" x2="75" y2="317.5" stroke="white"/>
<line x1="96" y1="317.5" x2="112" y2="317.5" stroke="white"/>
<line x1="133" y1="317.5" x2="149" y2="317.5" stroke="white"/>
<line x1="158" y1="317.5" x2="174" y2="317.5" stroke="white"/>
<line x1="195" y1="317.5" x2="211" y2="317.5" stroke="white"/>
<line x1="232" y1="317.5" x2="248" y2="317.5" stroke="white"/>
<line x1="257" y1="317.5" x2="273" y2="317.5" stroke="white"/>
<line x1="294" y1="317.5" x2="310" y2="317.5" stroke="white"/>
<line x1="331" y1="317.5" x2="347" y2="317.5" stroke="white"/>
<line x1="356" y1="317.5" x2="372" y2="317.5" stroke="white"/>
<line x1="71.5" y1="305" x2="71.5" y2="289" stroke="white"/>
<line x1="71.5" y1="280" x2="71.5" y2="264" stroke="white"/>
<line x1="71.5" y1="243" x2="71.5" y2="227" stroke="white"/>
<line x1="71.5" y1="206" x2="71.5" y2="190" stroke="white"/>
<line x1="71.5" y1="181" x2="71.5" y2="165" stroke="white"/>
<line x1="71.5" y1="144" x2="71.5" y2="128" stroke="white"/>
<line x1="71.5" y1="107" x2="71.5" y2="91" stroke="white"/>
<line x1="71.5" y1="82" x2="71.5" y2="66" stroke="white"/>
<line x1="169.5" y1="305" x2="169.5" y2="289" stroke="white"/>
<line x1="169.5" y1="280" x2="169.5" y2="264" stroke="white"/>
<line x1="169.5" y1="243" x2="169.5" y2="227" stroke="white"/>
<line x1="169.5" y1="206" x2="169.5" y2="190" stroke="white"/>
<line x1="169.5" y1="181" x2="169.5" y2="165" stroke="white"/>
<line x1="169.5" y1="144" x2="169.5" y2="128" stroke="white"/>
<line x1="169.5" y1="107" x2="169.5" y2="91" stroke="white"/>
<line x1="169.5" y1="82" x2="169.5" y2="66" stroke="white"/>
<line x1="267.5" y1="305" x2="267.5" y2="289" stroke="white"/>
<line x1="267.5" y1="280" x2="267.5" y2="264" stroke="white"/>
<line x1="267.5" y1="243" x2="267.5" y2="227" stroke="white"/>
<line x1="267.5" y1="206" x2="267.5" y2="190" stroke="white"/>
<line x1="267.5" y1="181" x2="267.5" y2="165" stroke="white"/>
<line x1="267.5" y1="144" x2="267.5" y2="128" stroke="white"/>
<line x1="267.5" y1="107" x2="267.5" y2="91" stroke="white"/>
<line x1="267.5" y1="82" x2="267.5" y2="66" stroke="white"/>
<line x1="371.5" y1="305" x2="371.5" y2="289" stroke="white"/>
<line x1="371.5" y1="280" x2="371.5" y2="264" stroke="white"/>
<line x1="371.5" y1="243" x2="371.5" y2="227" stroke="white"/>
<line x1="371.5" y1="206" x2="371.5" y2="190" stroke="white"/>
<line x1="371.5" y1="181" x2="371.5" y2="165" stroke="white"/>
<line x1="371.5" y1="144" x2="371.5" y2="128" stroke="white"/>
<line x1="371.5" y1="107" x2="371.5" y2="91" stroke="white"/>
<line x1="371.5" y1="82" x2="371.5" y2="66" stroke="white"/>
<rect x="75" y="66" width="128" height="41" fill="#2B31BB"/>
<circle cx="87" cy="100" r="5" fill="#BDBDBD"/>
<circle cx="120" cy="100" r="5" fill="#BDBDBD"/>
<circle cx="153" cy="100" r="5" fill="#BDBDBD"/>
<circle cx="186" cy="100" r="5" fill="#BDBDBD"/>
<circle cx="87" cy="74" r="5" fill="#BDBDBD"/>
<circle cx="120" cy="74" r="5" fill="#BDBDBD"/>
<circle cx="153" cy="74" r="5" fill="#BDBDBD"/>
<circle cx="186" cy="74" r="5" fill="#BDBDBD"/>
<rect x="232" y="202" width="140" height="85" fill="#DD2424"/>
<g filter="url(#filter0_d_125_125)">
<rect x="191" y="77" width="25" height="20" fill="#F3F3F3"/>
</g>
<rect x="196" y="81" width="16" height="4" fill="#817F7F"/>
<rect x="196" y="88" width="16" height="4" fill="#817F7F"/>
<rect x="65" y="204" width="146" height="104" fill="#2B31BB"/>
<g filter="url(#filter1_d_125_125)">
<rect x="137.443" y="72" width="20" height="20" transform="rotate(46.2327 137.443 72)" fill="#333333"/>
</g>
<g filter="url(#filter2_d_125_125)">
<rect x="104" y="247" width="66" height="42" fill="#D2D2D2"/>
</g>
<g filter="url(#filter3_d_125_125)">
<rect x="326.142" y="230.805" width="32.7292" height="68.4596" transform="rotate(90 326.142 230.805)" fill="#D2D2D2"/>
</g>
<circle cx="87" cy="216" r="5" fill="#BDBDBD"/>
<circle cx="120" cy="216" r="5" fill="#BDBDBD"/>
<circle cx="153" cy="216" r="5" fill="#BDBDBD"/>
<circle cx="186" cy="216" r="5" fill="#BDBDBD"/>
<circle cx="252" cy="216" r="5" fill="#BDBDBD"/>
<circle cx="285" cy="216" r="5" fill="#BDBDBD"/>
<circle cx="318" cy="216" r="5" fill="#BDBDBD"/>
<circle cx="351" cy="216" r="5" fill="#BDBDBD"/>
<circle cx="252" cy="274" r="5" fill="#BDBDBD"/>
<circle cx="285" cy="274" r="5" fill="#BDBDBD"/>
<circle cx="318" cy="274" r="5" fill="#BDBDBD"/>
<circle cx="351" cy="274" r="5" fill="#BDBDBD"/>
<defs>
<filter id="filter0_d_125_125" x="191" y="73" width="34" height="28" filterUnits="userSpaceOnUse" color-interpolation-filters="sRGB">
<feFlood flood-opacity="0" result="BackgroundImageFix"/>
<feColorMatrix in="SourceAlpha" type="matrix" values="0 0 0 0 0 0 0 0 0 0 0 0 0 0 0 0 0 0 127 0" result="hardAlpha"/>
<feOffset dx="5"/>
<feGaussianBlur stdDeviation="2"/>
<feComposite in2="hardAlpha" operator="out"/>
<feColorMatrix type="matrix" values="0 0 0 0 0 0 0 0 0 0 0 0 0 0 0 0 0 0 0.25 0"/>
<feBlend mode="normal" in2="BackgroundImageFix" result="effect1_dropShadow_125_125"/>
<feBlend mode="normal" in="SourceGraphic" in2="effect1_dropShadow_125_125" result="shape"/>
</filter>
<filter id="filter1_d_125_125" x="123" y="72" width="36.2777" height="36.2777" filterUnits="userSpaceOnUse" color-interpolation-filters="sRGB">
<feFlood flood-opacity="0" result="BackgroundImageFix"/>
<feColorMatrix in="SourceAlpha" type="matrix" values="0 0 0 0 0 0 0 0 0 0 0 0 0 0 0 0 0 0 127 0" result="hardAlpha"/>
<feOffset dx="4" dy="4"/>
<feGaussianBlur stdDeviation="2"/>
<feComposite in2="hardAlpha" operator="out"/>
<feColorMatrix type="matrix" values="0 0 0 0 0 0 0 0 0 0 0 0 0 0 0 0 0 0 0.25 0"/>
<feBlend mode="normal" in2="BackgroundImageFix" result="effect1_dropShadow_125_125"/>
<feBlend mode="normal" in="SourceGraphic" in2="effect1_dropShadow_125_125" result="shape"/>
</filter>
<filter id="filter2_d_125_125" x="104" y="247" width="74" height="50" filterUnits="userSpaceOnUse" color-interpolation-filters="sRGB">
<feFlood flood-opacity="0" result="BackgroundImageFix"/>
<feColorMatrix in="SourceAlpha" type="matrix" values="0 0 0 0 0 0 0 0 0 0 0 0 0 0 0 0 0 0 127 0" result="hardAlpha"/>
<feOffset dx="4" dy="4"/>
<feGaussianBlur stdDeviation="2"/>
<feComposite in2="hardAlpha" operator="out"/>
<feColorMatrix type="matrix" values="0 0 0 0 0 0 0 0 0 0 0 0 0 0 0 0 0 0 0.25 0"/>
<feBlend mode="normal" in2="BackgroundImageFix" result="effect1_dropShadow_125_125"/>
<feBlend mode="normal" in="SourceGraphic" in2="effect1_dropShadow_125_125" result="shape"/>
</filter>
<filter id="filter3_d_125_125" x="257.682" y="230.805" width="76.4595" height="40.7291" filterUnits="userSpaceOnUse" color-interpolation-filters="sRGB">
<feFlood flood-opacity="0" result="BackgroundImageFix"/>
<feColorMatrix in="SourceAlpha" type="matrix" values="0 0 0 0 0 0 0 0 0 0 0 0 0 0 0 0 0 0 127 0" result="hardAlpha"/>
<feOffset dx="4" dy="4"/>
<feGaussianBlur stdDeviation="2"/>
<feComposite in2="hardAlpha" operator="out"/>
<feColorMatrix type="matrix" values="0 0 0 0 0 0 0 0 0 0 0 0 0 0 0 0 0 0 0.25 0"/>
<feBlend mode="normal" in2="BackgroundImageFix" result="effect1_dropShadow_125_125"/>
<feBlend mode="normal" in="SourceGraphic" in2="effect1_dropShadow_125_125" result="shape"/>
</filter>
</defs>
</svg>
