<svg width="175" height="100" viewBox="0 0 175 100" fill="none" xmlns="http://www.w3.org/2000/svg">
<path d="M24.3711 82H15.3086L29.1172 42H40.0156L53.8047 82H44.7422L34.7227 51.1406H34.4102L24.3711 82ZM23.8047 66.2773H45.2109V72.8789H23.8047V66.2773ZM58.6191 42H69.0488L80.0645 68.875H80.5332L91.5488 42H101.979V82H93.7754V55.9648H93.4434L83.0918 81.8047H77.5059L67.1543 55.8672H66.8223V82H58.6191V42Z" fill="black"/>
<path d="M119.493 92C114.914 92 111.548 91.798 109.393 91.394C107.238 90.99 106.161 90.5187 106.161 89.98L112.221 76.951C113.77 77.2203 116.968 77.4897 121.816 77.759C126.664 77.961 132.96 78.062 140.703 78.062H148.682C151.039 78.062 152.621 77.7253 153.429 77.052C154.237 76.3787 154.641 75.4023 154.641 74.123V73.113C154.641 71.497 154.237 70.386 153.429 69.78C152.621 69.174 151.039 68.871 148.682 68.871H125.553C118.752 68.871 113.803 67.6253 110.706 65.134C107.609 62.5753 106.06 58.4343 106.06 52.711V49.075C106.06 46.1123 106.599 43.3853 107.676 40.894C108.821 38.4027 110.74 36.4163 113.433 34.935C116.126 33.3863 119.83 32.612 124.543 32.612H158.075C162.182 32.612 165.583 32.8477 168.276 33.319C171.037 33.7903 172.417 34.2953 172.417 34.834L169.387 47.358C167.502 47.156 163.933 46.954 158.681 46.752C153.496 46.4827 146.898 46.348 138.885 46.348L131.613 46.247C129.526 46.247 128.044 46.55 127.169 47.156C126.294 47.6947 125.822 48.7383 125.755 50.287V50.994C125.755 52.5427 126.226 53.62 127.169 54.226C128.112 54.832 129.627 55.135 131.714 55.135H153.934C158.243 55.135 161.913 55.5727 164.943 56.448C167.973 57.3233 170.296 58.9393 171.912 61.296C173.528 63.5853 174.336 66.9857 174.336 71.497V75.133C174.336 80.183 173.023 84.2567 170.397 87.354C167.838 90.4513 163.361 92 156.964 92H119.493Z" fill="#00B0F0"/>
<path d="M0.906368 26.8523H7.5902L14.3037 12.2324L19.5502 39.6894L32.3076 1L35.3281 26.8523L43.1106 13.6587L48.6214 37.3716L57.5484 24.5346H124.721" stroke="#F11313" stroke-width="5"/>
</svg>
